<?xml version="1.0" encoding="UTF-8" standalone="no"?>
<!-- Created with Inkscape (http://www.inkscape.org/) -->

<svg
   version="1.1"
   id="svg1"
   width="168"
   height="116"
   viewBox="0 0 168 116"
   sodipodi:docname="Base_Logo_Simple.eps"
   xmlns:inkscape="http://www.inkscape.org/namespaces/inkscape"
   xmlns:sodipodi="http://sodipodi.sourceforge.net/DTD/sodipodi-0.dtd"
   xmlns="http://www.w3.org/2000/svg"
   xmlns:svg="http://www.w3.org/2000/svg">
  <defs
     id="defs1" />
  <sodipodi:namedview
     id="namedview1"
     pagecolor="#ffffff"
     bordercolor="#000000"
     borderopacity="0.25"
     inkscape:showpageshadow="2"
     inkscape:pageopacity="0.0"
     inkscape:pagecheckerboard="0"
     inkscape:deskcolor="#d1d1d1">
    <inkscape:page
       x="0"
       y="0"
       inkscape:label="1"
       id="page1"
       width="168"
       height="116"
       margin="0"
       bleed="0" />
  </sodipodi:namedview>
  <g
     id="g1"
     inkscape:groupmode="layer"
     inkscape:label="1">
    <path
       id="path1"
       d="m 667.711,253.453 c -5.832,-12.644 2.922,-21.398 9.238,-31.113 3.895,-7.789 10.207,-19.457 3.895,-26.254 0.972,-15.566 16.531,-25.297 10.695,-43.285 2.43,-9.723 20.426,-13.125 8.754,-24.801 1.457,-1.457 3.398,-1.941 5.348,-1.457 -1.457,-8.266 4.859,-24.313 -7.293,-27.7149 -5.836,0.4883 -10.211,3.4019 -14.586,6.8089 -8.27,0.488 -17.508,2.426 -24.801,6.316 -9.727,-2.914 -21.879,-0.969 -30.633,5.356 -5.348,0.484 -11.176,5.832 -16.043,1.941 -11.18,0 -17.504,12.16 -27.722,11.676 -13.122,3.887 -26.247,8.262 -36.465,16.531 -6.325,-1.465 -13.61,-1.465 -20.422,-2.922 -7.297,14.102 -24.801,6.809 -35.008,18.481 -1.465,3.402 3.402,4.859 5.348,5.832 15.558,0.972 26.254,18.961 43.277,17.019 6.805,9.723 17.984,11.676 26.262,17.988 0,2.438 1.457,4.868 3.398,6.809 8.75,-1.941 7.781,12.152 18.477,9.723 12.648,-2.922 22.855,9.246 34.523,13.617 8.266,5.832 18.477,7.781 28.688,9.238 1.949,6.809 8.269,12.641 15.07,10.211 z m -23.336,82.664 c 8.266,2.43 11.672,-9.238 19.938,-7.781 2.429,-4.379 6.804,-9.246 5.828,-14.582 v 0 l -11.664,-15.57 v 0 c -7.293,-2.426 -13.622,-7.289 -20.907,-9.723 v -0.484 c -24.312,-2.914 -33.55,-34.039 -57.867,-36.465 -27.711,-14.59 -59.324,-15.078 -82.66,-39.391 -6.32,-5.828 -24.801,4.379 -22.855,-9.723 -9.727,-9.722 -25.278,-4.855 -35.008,-13.617 -6.317,3.895 -14.102,4.379 -19.934,8.762 -15.562,7.285 -35.984,7.77 -46.195,24.797 -9.242,8.75 -23.34,10.207 -33.555,18.469 -1.457,5.351 -13.613,11.187 -4.855,17.023 3.882,10.688 12.148,15.555 22.843,17.992 10.219,9.239 24.317,11.18 30.153,25.274 5.84,4.382 12.648,5.847 18.965,9.25 5.347,-0.489 10.695,-4.868 15.558,-4.383 v 0 l 18.477,10.703 v 0 c 4.859,-0.492 9.73,1.457 14.59,0.48 4.375,4.379 10.695,3.407 14.101,7.778 2.43,0.488 4.371,0.488 5.836,-1.457 10.207,-2.426 17.992,2.926 28.203,1.945 6.317,5.359 14.098,0.981 19.934,8.27 4.375,-1.457 9.722,1.949 11.668,6.32 11.672,0.969 16.535,-9.723 29.176,-5.832 1.945,0.969 3.89,0.488 5.839,2.43 2.426,-1.942 3.399,-7.782 7.293,-5.829 6.805,13.61 18.473,-5.359 25.766,7.29 6.809,-5.348 17.504,4.378 25.77,0 2.921,0.484 4.375,-3.403 7.3,-0.973 1.457,2.426 2.914,5.836 5.828,6.32 2.914,-1.457 0,-5.836 2.434,-7.293 z m -390.457,93.844 c 11.672,1.945 27.227,3.887 37.441,-1.941 1.95,0.484 6.321,-1.469 7.782,2.425 v 0.489 c 4.859,-2.43 11.179,-7.782 17.988,-3.887 7.781,2.426 14.101,-5.352 21.394,-6.324 3.407,2.914 5.84,10.695 11.672,6.808 5.832,-3.406 11.672,-0.484 18.477,-2.437 3.891,0 3.891,4.867 7.293,5.351 6.805,0 17.992,8.27 20.91,-2.425 3.41,-2.926 7.781,-1.946 11.672,-2.926 7.781,-9.723 22.851,-7.285 33.551,-11.172 8.757,-0.981 17.988,-5.352 26.261,-1.465 10.696,0.973 21.387,-3.887 31.602,-9.238 h 4.863 v 0 c -10.699,-5.344 -24.801,-7.293 -35.496,-10.211 -19.937,-0.485 -40.363,-11.672 -60.781,-15.074 -13.133,-13.133 -32.094,-8.754 -44.254,-23.829 -4.375,3.403 -10.691,-1.457 -15.07,2.915 -7.774,-2.426 -15.559,-9.235 -23.821,-4.856 -6.324,-9.238 -10.707,-26.258 -24.804,-27.238 -3.891,0.98 -7.782,-0.969 -9.723,-4.371 -7.297,-1.465 -20.422,4.371 -20.91,-7.293 -1.461,-2.43 -1.942,-4.86 -2.434,-7.297 1.949,-2.914 7.782,-3.883 3.891,-7.781 -5.832,-6.313 -14.106,-1.942 -19.445,-8.75 1.457,-15.075 15.554,-27.231 25.285,-38.895 0.968,-3.894 6.316,-5.84 10.207,-7.297 14.105,-4.863 28.203,-16.047 33.066,-31.121 3.891,-0.484 14.106,4.379 12.156,-5.351 9.723,0 11.18,-13.122 21.883,-10.684 13.617,-5.356 25.77,-18 40.84,-16.543 1.945,-0.973 3.402,-2.43 3.895,-4.859 -0.493,-1.457 1.457,-1.95 2.433,-3.407 0.481,0.493 0.481,0.981 0.965,0.493 v -0.981 c -10.687,-0.969 -24.797,10.219 -34.035,-0.484 -9.719,-6.809 -18.477,-8.75 -29.176,-11.668 -17.016,-3.887 -33.062,-10.696 -47.644,-19.934 -5.352,2.914 -10.219,-0.492 -15.567,0.485 -9.719,-4.864 -20.91,-7.293 -30.148,-12.645 -17.504,3.895 -30.633,-1.945 -46.188,-7.293 -11.187,3.891 -16.047,-6.316 -25.777,-5.832 -2.43,-0.977 -5.348,-2.922 -7.774,-0.484 -1.464,2.914 -9.73,4.859 -6.324,9.238 -3.406,6.801 0,15.066 -2.914,21.879 v 0 l 0.481,6.32 v 0 c 2.922,-0.973 6.808,-0.484 8.265,1.945 -0.972,6.321 -12.64,14.586 0.492,17.989 14.582,8.265 11.665,22.371 11.665,35.988 6.32,9.715 9.238,21.391 15.558,31.113 -0.48,5.836 -9.238,10.211 -4.375,17.02 1.945,17.504 15.563,28.691 23.828,43.758 -2.922,23.343 -5.344,47.656 -9.238,70.027 -0.973,12.637 -8.754,27.715 0,39.379 v 0 l 2.918,11.191 v 0 c 6.805,2.426 12.156,-2.429 17.988,1.942 5.836,2.429 10.696,9.238 17.02,7.297 3.406,2.914 -0.973,6.796 2.914,8.75 5.351,2.429 6.808,-3.887 9.242,-6.809 z m 145.391,105.512 c 1.457,-5.832 6.804,-8.27 8.269,-14.098 -7.293,0 -14.101,4.867 -21.402,6.324 -1.457,4.86 3.89,9.723 6.324,11.668 2.434,-0.972 2.914,-5.84 6.809,-3.894 z m 232.91,-8.754 c 3.41,-6.801 2.918,-14.578 2.918,-22.36 3.402,-7.296 10.695,-13.617 10.695,-21.886 -1.457,-3.399 -0.977,-8.258 -1.937,-11.18 6.796,-1.941 9.238,-8.266 10.695,-14.59 -1.949,-1.945 0,-3.887 0.484,-5.84 -10.699,1.953 -21.398,-0.968 -32.578,-1.941 -8.754,8.266 -20.418,15.074 -32.098,18.961 h -7.293 v 0 c -8.261,3.41 -14.093,13.133 -24.308,12.16 -19.449,5.344 -37.926,12.648 -57.859,16.535 -1.458,0.973 -3.411,2.43 -5.356,0.973 -2.914,1.941 -6.805,4.379 -8.75,7.777 0,3.402 -0.488,5.344 0,8.754 11.184,-0.973 19.449,10.211 29.176,15.559 6.805,7.297 17.504,8.269 25.765,14.105 19.938,-4.867 36.473,9.238 57.379,8.754 3.411,0.484 7.782,0.484 11.676,2.426 8.262,-7.293 14.098,-18.961 21.391,-28.207 z m 30.148,103.094 c -0.488,-0.973 -1.945,0 -2.918,-0.489 v 2.43 c 1.461,0.484 1.949,-0.973 2.918,-1.941 z m -330.168,81.195 c 5.356,-1.457 10.707,-3.399 16.051,-5.344 2.918,1.457 4.375,-4.371 7.777,-1.953 9.731,-4.856 17.996,-0.961 28.211,-1.457 12.637,-7.293 28.2,-9.715 37.434,-23.332 10.215,-5.352 19.453,-10.703 29.664,-17.504 2.434,0.488 4.859,1.941 7.785,1.457 1.457,-1.457 0.481,-2.922 0,-4.379 -1.469,-4.375 0,-7.297 -1.949,-11.668 -13.617,-18.484 -38.902,-11.18 -54.465,-26.254 -2.422,-0.488 -4.371,-2.926 -6.805,-4.383 v 0 l -0.488,0.489 v 0 c -4.859,-2.918 -10.211,-8.754 -16.043,-6.325 -4.375,-2.914 -9.723,0.485 -13.613,-2.914 v 0 l -5.348,-8.753 v 0 c -22.371,-5.352 -44.25,-12.153 -63.703,-24.797 -18.477,-8.266 -35.492,-15.078 -51.539,-28.688 -7.781,-9.73 -15.078,5.828 -23.344,4.867 1.946,15.555 8.266,30.629 8.266,47.645 3.89,2.926 8.754,5.344 13.129,7.781 v 0 l -4.375,18.477 v 0 c 9.238,14.105 20.906,26.265 16.047,44.738 3.41,12.156 14.589,20.906 18.472,33.543 4.383,6.812 11.188,12.164 17.996,15.086 14.586,-1.465 25.77,-6.332 40.84,-6.332 z M 104.152,853.477 c 4.868,-0.477 9.239,2.925 14.106,2.429 1.457,0.981 5.832,0.981 8.265,0 v 0 l 10.207,-9.226 v 0 c 2.915,-0.981 9.727,1.453 11.184,-1.953 2.438,-5.829 7.293,1.953 11.184,1.953 8.265,2.91 1.949,-10.211 9.726,-7.782 2.43,0 7.297,0.485 8.754,-2.921 -0.484,-1.938 0.973,-3.411 2.43,-4.86 13.613,-1.457 28.687,1.449 41.816,-2.914 1.946,-5.84 -11.179,-9.246 -1.941,-12.64 v 0 l 0.969,-0.981 v 0 c 2.918,2.441 1.461,6.809 5.347,8.754 22.371,-4.379 41.332,12.641 63.703,0.973 3.887,-1.946 13.129,-0.489 12.645,-6.317 v 0 l 23.824,-4.863 v 0 c 3.887,-2.918 8.75,-0.981 13.125,-3.41 1.461,1.941 2.918,-0.477 4.375,-0.973 1.949,-5.344 -8.75,-10.695 0,-13.125 21.887,-5.351 42.305,-12.644 63.707,-17.988 4.371,-1.953 0.969,-11.18 7.774,-9.246 14.589,0.496 29.179,-10.684 42.793,-6.317 4.375,-3.406 6.804,-12.16 13.613,-9.73 3.894,-1.449 8.754,-1.449 13.613,-1.942 12.645,0 24.313,-10.699 36.473,-2.429 5.344,0.972 9.234,-0.489 14.101,-2.43 14.102,2.914 14.102,-22.371 29.172,-17.027 2.918,-4.856 0.488,-9.715 5.352,-14.094 4.375,-4.867 13.613,-8.754 11.668,-17.992 0.968,-0.973 1.457,-3.887 -0.489,-3.887 -3.402,0 -7.293,0 -8.265,-3.406 -1.942,-7.781 -7.778,-14.106 -10.695,-21.399 -17.504,-14.105 -34.528,-26.257 -49.114,-43.761 -1.945,-1.946 -3.89,-1.946 -6.808,-0.973 -11.184,-8.266 -16.532,-25.285 -31.114,-25.77 -11.191,-1.457 -19.941,-9.722 -26.742,-17.992 v -0.968 c 10.211,3.406 20.899,2.429 32.086,4.863 2.434,2.422 2.918,6.316 5.836,6.805 11.184,-3.403 21.395,3.882 31.609,4.378 3.887,8.266 14.582,7.774 22.364,11.668 2.922,-1.945 5.351,0.969 7.293,2.426 8.754,1.457 16.535,3.887 24.8,6.813 -0.488,3.406 -7.293,9.722 0.485,10.207 8.265,1.457 16.047,2.914 24.801,3.894 7.293,7.285 19.449,10.211 30.629,8.754 10.214,-2.43 18.968,-4.383 29.664,-4.383 1.945,1.953 -1.946,4.383 1.945,5.84 8.262,2.426 17.992,-0.972 26.258,1.942 5.832,-2.43 5.343,8.265 12.156,3.894 2.914,1.942 0.973,7.285 5.828,6.801 5.352,-6.317 11.676,1.949 17.504,0 4.379,3.41 6.809,10.703 14.109,6.324 12.153,-3.402 22.364,7.781 34.032,2.922 17.019,-13.617 29.668,-31.605 41.824,-48.141 1.449,0.973 4.375,-0.484 6.316,0.973 7.293,-6.809 -3.402,-14.105 -4.867,-20.914 -2.43,-3.398 -6.316,-2.43 -9.23,-4.859 -4.864,1.945 -6.809,8.753 -13.618,8.753 -5.351,1.458 -3.406,-5.351 -5.836,-8.265 -1.941,-9.727 -11.668,-0.488 -18.476,-3.41 -17.504,0.98 -32.094,3.41 -49.109,0 -5.84,0 -11.672,0 -17.02,-2.422 -2.918,-3.895 -8.754,-8.274 -6.324,-13.625 1.949,-5.344 0.976,-13.61 1.457,-19.934 -1.457,-3.883 -5.832,-2.914 -6.809,-6.32 4.379,-7.289 0,-18.469 8.758,-22.363 4.375,-4.371 -1.457,-10.219 2.918,-14.59 3.398,-4.867 9.234,-9.723 6.809,-16.531 -4.375,-2.918 -6.325,-7.782 -9.727,-11.668 2.918,-6.809 13.617,-11.676 7.781,-18.969 v 0 l -8.754,-13.125 10.7,-13.61 v 0 c -3.411,-4.867 0.484,-10.703 1.457,-15.562 4.863,-3.406 12.152,-4.379 14.589,-10.703 6.321,-3.399 15.067,-1.457 22.844,-1.942 2.926,-5.839 8.754,-11.668 8.754,-17.992 -0.965,-4.863 -11.18,-6.32 -5.828,-11.179 5.344,-3.895 9.238,-5.352 14.582,-5.352 4.863,-0.973 11.188,-4.371 12.16,-8.266 -4.383,-15.562 -17.019,-29.664 -28.687,-40.847 -7.293,0.488 -2.914,-10.207 -9.723,-10.207 -5.352,-2.438 -10.215,-6.325 -14.59,-8.762 2.918,-23.332 10.695,-46.188 12.153,-70.496 8.753,-9.731 0.488,-24.797 13.132,-31.613 -1.465,-2.422 -2.429,-4.86 -1.953,-7.774 1.953,-1.941 5.84,-0.484 7.789,-3.398 -0.976,-3.895 -3.89,-9.735 1.457,-11.676 5.832,-4.371 13.125,-7.781 11.184,-17.02 4.855,-3.402 9.238,-7.781 12.152,-13.132 -1.457,-6.801 -4.855,-14.582 2.43,-18.961 -15.555,-13.125 6.809,-24.313 5.351,-37.9301 2.915,-9.7187 16.047,-17.5 6.809,-28.6875 -2.43,-7.2929 7.293,-10.207 11.188,-14.582 4.375,-4.8672 5.343,-11.6719 8.265,-17.9961 -3.89,-14.0976 -20.426,-10.6953 -31.121,-12.6406 -9.73,2.918 -17.504,13.125 -28.691,9.2383 -13.125,-0.4844 -17.504,10.6953 -27.227,18.4765 -17.019,-1.457 -25.285,13.1328 -38.422,19.4493 -10.207,-0.9727 -20.414,1.457 -28.679,6.8085 -9.243,2.9219 -19.45,3.4063 -26.743,8.75 -7.781,6.3243 -16.046,-0.4843 -23.339,5.8399 -14.102,0.9726 -24.313,11.1797 -38.411,11.6641 -9.238,2.4375 -17.511,7.7817 -26.257,8.2737 -0.485,1.945 -3.411,0 -4.379,1.945 -17.993,4.859 -34.524,15.559 -51.059,21.875 -6.809,0.488 -12.637,1.945 -18.48,3.895 -6.801,8.265 -16.039,12.156 -25.278,12.64 -9.73,-3.887 -19.453,-8.265 -29.179,-12.152 -18.961,-9.242 -39.872,-12.649 -59.325,-20.43 -9.722,0.981 -17.504,-6.316 -27.226,-7.293 -15.563,-2.43 -30.153,-10.6952 -44.731,-16.5233 -11.675,6.8008 -22.371,-1.9531 -31.129,-7.789 -5.343,-0.4805 -10.203,-0.9727 -14.586,-2.9141 -15.558,1.457 -27.226,-13.6133 -42.785,-12.6484 -14.105,3.4101 -22.371,-11.668 -34.039,-17.0118 -13.133,-14.1015 -31.121,0 -41.816,-19.9375 -3.887,-3.8906 -5.352,-12.1562 -12.649,-9.7265 C 101.727,16.168 93.9414,12.2734 87.6211,15.6797 71.5742,16.6523 59.9023,-2.30859 42.8828,4.49219 37.5352,4.98438 28.7852,1.57813 24.4141,6.92969 22.4648,11.3008 16.6328,11.793 14.1992,16.6523 v 0 l 7.7774,22.3633 20.4218,17.5117 -5.832,23.3399 v 0 c 6.3164,8.7461 16.0469,16.5273 15.0742,28.6878 2.4297,10.695 14.5899,18.476 11.668,30.148 -0.4883,5.832 -11.668,12.149 -1.9453,17.02 1.457,0 1.9453,1.457 2.918,2.429 0.4804,8.266 -10.6993,17.993 1.457,24.313 3.4023,3.887 4.8633,9.723 11.6719,9.723 v 0 l 0.4882,13.609 19.9336,14.59 v 0 c -0.4843,4.371 -4.3789,7.781 -2.4297,11.668 2.9102,1.949 7.2927,0.492 9.7227,3.41 1.461,6.32 -8.2656,15.074 2.918,17.504 2.434,-0.489 3.891,1.949 4.863,3.406 -2.914,19.926 11.672,34.52 9.239,53.973 5.835,26.742 9.726,50.566 16.046,77.308 -0.972,3.41 -6.32,5.84 -4.863,9.727 0.977,4.375 4.375,8.265 4.863,13.121 -4.863,1.953 -4.863,7.789 -9.726,8.762 3.89,7.285 13.129,8.754 17.508,15.074 -4.86,5.832 -17.02,-1.942 -15.078,10.211 -1.457,7.773 -1.457,16.531 -2.43,24.801 v 0 l 7.297,7.293 v 0 c -2.914,5.343 -7.297,10.695 -10.215,16.046 7.781,7.782 9.238,19.45 12.644,29.172 7.782,7.778 22.856,10.207 21.883,24.797 0.973,3.887 -3.406,5.84 -0.976,9.727 5.351,4.863 8.757,11.187 14.101,16.531 v 0 l -17.015,23.34 v 0 c 5.347,5.832 9.238,11.668 14.586,17.504 -3.891,8.754 -17.02,14.105 -13.129,26.258 7.781,7.781 13.129,17.019 11.183,28.691 1.461,2.422 5.836,3.887 7.778,6.805 4.378,8.75 2.918,19.445 3.406,28.691 -11.672,3.402 -4.371,18.961 -6.32,28.688 0.484,4.863 3.89,9.234 -0.489,13.617 -2.429,4.379 -4.863,8.258 -8.265,11.664 -17.504,2.914 -37.93,4.867 -54.942,2.914 -12.6443,1.953 -27.2342,-0.477 -38.9022,-1.942 -6.3281,4.383 -20.4257,-5.828 -21.8828,6.325 0,3.886 -1.9492,7.297 -3.8906,10.207 -8.75,-1.942 -16.0469,-6.321 -21.8789,-12.637 -13.1328,1.457 -16.53516,16.523 -21.88672,25.77 0,2.429 0.97656,5.343 2.4336,7.296 1.94531,2.43 5.83984,-0.488 9.23832,-0.488 17.5078,24.801 35.0117,48.617 59.8125,66.617 10.6953,-0.492 21.8789,-1.949 31.1168,-8.761 z M 854.43,353.621 c 7.3,-0.484 15.082,-6.324 17.996,-13.125 2.429,-11.187 -8.762,-15.082 -16.047,-20.426 -10.695,-3.402 -19.934,-4.859 -31.606,-5.351 -0.488,6.808 -5.351,16.054 -3.406,23.344 -2.426,7.777 -1.945,15.558 3.891,19.937 9.238,0.477 21.883,2.914 29.172,-4.379 z m 20.425,49.598 c 4.379,-9.723 -1.457,-17.989 -7.292,-24.801 -5.352,-4.371 -12.157,-7.777 -17.504,-12.16 11.671,-6.313 28.683,-9.238 34.035,-24.305 2.922,-10.695 -6.317,-17.504 -13.133,-22.863 v 0 l -0.484,0.492 v 0 c -12.641,-8.266 -27.715,-10.703 -42.297,-11.18 -8.758,-0.98 -19.942,-1.457 -25.778,8.266 -1.457,3.402 2.914,3.402 4.379,5.344 2.914,0.488 6.317,-0.485 8.754,0.488 -2.918,12.641 0.973,27.711 -4.859,38.902 1.457,0.969 2.906,1.457 4.371,2.922 0,5.344 0,11.66 -4.863,14.094 0.492,10.211 0.968,21.391 3.89,29.66 3.891,-0.965 10.211,-1.945 10.211,-7.289 -5.836,-9.723 -3.406,-22.371 -2.43,-33.551 3.403,-0.484 8.754,-0.484 12.641,0 12.152,5.352 26.746,12.153 31.121,26.258 1.457,7.293 -4.375,12.152 -9.238,15.551 -19.453,8.762 -40.844,4.875 -60.301,-0.969 -2.43,-2.914 -3.887,-5.344 -7.297,-6.801 -3.398,-0.488 -3.883,2.914 -5.824,3.887 6.313,12.149 22.852,12.645 35.008,15.559 5.836,1.457 14.59,0.972 20.418,-0.973 13.617,0 28.691,-4.379 36.472,-16.531 z m 67.102,-43.274 c -0.973,-2.437 -0.484,-5.84 1.949,-7.297 -8.758,-3.406 -20.914,-4.371 -31.129,-4.371 2.438,16.524 10.703,33.059 16.047,50.075 5.84,-11.664 8.754,-25.762 13.133,-38.407 z m -9.238,56.407 c 3.402,-7.305 2.918,-16.055 6.808,-22.856 -0.492,-6.324 3.403,-12.16 3.887,-18.969 2.43,-1.937 1.949,-5.347 2.914,-7.773 1.953,-4.383 2.438,-10.703 6.324,-14.106 4.868,0.489 9.723,1.946 14.106,-0.972 -0.973,-2.434 -2.434,-5.836 -5.352,-6.321 -2.914,0 -5.351,2.43 -7.289,-1.457 4.375,-8.757 5.344,-18.972 13.125,-26.265 1.457,-3.879 -2.918,-4.856 -4.375,-7.285 -7.293,-0.489 -6.32,10.695 -9.722,16.047 -2.434,5.832 -2.918,12.644 -6.817,17.503 -6.801,-2.437 -13.609,0.485 -19.445,-1.945 -6.809,0 -11.668,-1.949 -17.988,-3.89 -2.442,-8.754 -7.782,-16.051 -6.321,-26.258 -1.945,-1.457 -4.379,-1.946 -6.812,-1.457 -2.914,8.742 4.867,14.101 4.867,22.847 -4.383,0.977 -10.223,1.465 -11.68,6.809 -0.965,2.437 1.457,3.406 2.926,4.867 4.371,-0.973 8.266,0.484 12.156,1.457 9.235,17.996 9.235,39.871 18.961,57.863 0,4.379 1.949,8.266 2.918,12.161 1.457,2.914 4.863,1.457 6.809,0 z m 257.221,-5.848 c 0.97,-0.961 0.5,-2.426 0.5,-3.883 v 0 l -0.98,-1.457 v 0 c -11.66,2.426 -21.88,-1.461 -32.58,-2.918 -8.26,7.297 -17.99,1.457 -27.72,2.918 -8.25,-0.973 -2.42,-9.726 -5.83,-13.613 v 0 l 1.45,-25.77 v 0 c 13.14,-4.867 25.77,1.457 39.39,0.973 5.84,-2.922 17.52,6.801 16.54,-3.895 -2.91,-3.402 -8.75,-0.972 -12.16,-2.437 -14.59,0 -27.22,0.492 -42.79,-0.477 v 0 l -2.43,-2.437 v 0 c 0,-11.18 0.48,-25.281 1.95,-35.008 3.88,-3.41 9.73,0 14.58,-2.918 5.84,0.973 14.1,-2.434 18,2.918 3.4,0.492 6.31,1.457 9.24,0 7.28,0.969 16.03,3.406 22.84,0 2.44,-7.289 -6.31,-4.867 -9.73,-6.801 -22.35,-2.922 -44.24,0.477 -67.58,-0.98 -4.37,2.429 -7.78,0.492 -12.65,1.457 v 0 l -9.22,3.894 v 0 c 0.95,3.399 2.43,6.325 6.32,5.836 6.8,-1.457 13.13,-6.324 20.42,-4.379 0.48,12.157 -0.97,24.801 1.46,36.473 -6.81,5.832 -17.99,-6.324 -21.88,3.402 0.48,3.895 5.84,2.43 8.75,3.895 2.91,-2.438 7.3,-0.973 11.18,-1.465 3.41,3.883 0.49,9.234 0.97,13.617 -5.35,6.801 -1.45,17.989 -3.41,26.254 -3.4,1.945 -7.77,-0.969 -12.63,0 -4.86,-0.484 -11.68,-1.945 -15.07,0.973 3.39,5.351 12.64,4.371 18.48,5.351 v 0 l 4.86,0.973 v 0 c 26.25,-1.953 52.02,4.371 79.73,-0.496 z m -146.36,11.191 c 8.27,0.485 14.6,-3.402 21.41,-5.343 5.35,-2.922 12.14,-6.809 13.61,-14.106 -0.49,-2.914 -2.91,-5.836 -6.32,-5.836 -1.94,0.973 -3.9,2.922 -4.38,4.867 1.46,5.836 -6.8,6.801 -10.21,11.18 -24.31,9.238 -51.54,8.266 -74.401,-3.41 -2.43,-2.426 -2.43,-5.828 -1.949,-8.75 4.379,-6.801 9.73,-11.668 16.527,-15.555 18.003,-10.695 38.433,-15.562 56.903,-25.285 0.49,-2.914 3.41,-1.949 5.36,-2.914 9.23,-8.266 24.79,-16.047 21.88,-31.129 -2.93,-7.781 -11.67,-11.18 -17.53,-15.066 -8.26,-0.973 -16.04,-2.926 -24.79,-2.926 -17.49,1.953 -40.354,-1.457 -51.538,16.047 -2.433,5.351 -6.32,11.191 -2.914,17.027 1.457,3.887 6.317,3.402 9.239,2.43 2.91,-4.379 -2.922,-9.731 0.48,-14.59 4.379,-7.293 13.143,-10.211 19.943,-11.668 12.65,-4.863 29.65,-0.969 42.79,0.965 5.34,2.437 13.12,3.894 13.12,11.676 -2.91,21.398 -26.26,28.199 -42.3,36.472 -6.8,2.914 -13.61,4.371 -20.41,8.746 -14.6,4.864 -29.674,9.723 -37.452,24.313 -0.492,6.808 4.375,12.644 9.235,15.082 18.484,9.23 38.427,10.695 60.307,9.715 v 0 l 3.39,-1.942 z m -244.092,57.379 c 2.914,-5.84 -1.945,-9.722 -4.859,-13.617 -13.133,-7.289 -27.723,-12.641 -42.797,-11.184 -3.402,12.641 -5.352,25.286 -2.914,39.391 17.02,5.344 39.863,1.457 50.57,-14.59 z m 4.371,59.321 c 2.922,-17.504 -15.078,-26.254 -25.769,-35.008 12.16,-5.836 28.691,-9.723 34.043,-24.313 1.449,-13.617 -13.617,-19.449 -22.371,-25.773 -14.102,-6.809 -32.09,-6.321 -47.653,-7.293 -5.351,2.43 -10.211,3.887 -13.132,9.722 -0.485,3.403 3.406,3.895 5.351,4.868 2.43,0.484 4.863,-0.496 6.809,-0.973 0,11.184 0,20.906 0,34.039 -4.379,2.426 -1.946,5.828 0.972,8.75 4.371,10.695 -10.211,12.641 -4.375,23.332 0,6.324 0.973,13.621 2.918,19.457 3.887,2.43 5.828,-3.406 9.239,-3.894 2.914,-3.887 -1.946,-7.782 -1.461,-12.153 0,-9.238 -0.969,-17.015 0.972,-25.285 16.047,0 34.524,8.754 42.789,23.828 0.489,4.86 1.457,11.668 -2.921,14.098 -20.418,13.129 -45.704,12.644 -67.102,2.922 -1.938,-1.953 -3.395,-5.352 -6.316,-5.84 -2.922,-0.969 -4.379,1.461 -5.836,2.918 -0.489,3.406 1.949,5.836 4.379,8.273 22.363,10.2 49.597,10.2 73.418,3.391 5.351,-4.856 14.589,-6.801 16.046,-15.066 z m 169.704,-41.332 c -0.493,-1.942 0.488,-4.868 2.433,-6.321 -3.402,-2.918 -8.754,-1.461 -12.164,-3.89 -6.801,-0.969 -13.121,0.488 -18.961,-0.969 1.949,15.074 10.211,28.683 13.133,44.246 v 0 l 2.914,4.379 v 0 c 5.84,-11.676 9.238,-25.293 12.645,-37.445 z m -3.407,36.464 c 2.914,-14.589 7.297,-29.656 14.106,-43.757 4.371,0 10.215,3.894 13.605,-0.973 0.5,-2.43 -0.957,-3.887 -2.91,-5.344 -2.914,-1.949 -6.324,2.914 -8.754,-0.98 2.914,-8.75 3.895,-18.961 10.707,-24.797 0.957,-0.973 0.477,-3.403 0.477,-4.86 -0.969,-1.953 -4.86,-6.808 -7.289,-2.437 -5.352,10.219 -6.809,21.883 -12.645,32.094 -12.164,-2.43 -25.285,-2.43 -36.469,-6.325 -3.89,-8.265 -7.777,-16.046 -7.293,-25.285 -1.953,-2.425 -3.894,-3.883 -6.808,-2.425 -2.43,8.75 3.398,15.074 5.351,22.855 -3.41,1.457 -9.242,-0.973 -10.211,3.895 0,1.941 -1.949,3.886 -0.492,5.343 5.352,3.887 15.563,-0.488 17.02,8.266 7.293,21.398 12.16,44.254 19.941,65.16 2.426,1.941 5.34,-0.496 6.797,-1.457 v 0 l 4.867,-18.973 z m -55.914,15.563 c 1.946,0.484 3.887,0 5.832,-1.457 0.492,-2.43 -0.972,-3.887 -2.429,-5.344 -11.192,1.934 -20.907,-1.465 -32.575,-2.922 v 0 l -3.902,4.856 v 0 c -8.266,-1.457 -19.926,0.98 -27.711,-3.883 -1.457,-12.156 -2.43,-26.746 0.492,-37.926 13.125,-1.941 25.766,0 37.926,2.914 5.836,0 10.699,-0.969 15.559,0 1.461,-1.941 3.886,-1.941 1.945,-4.371 -4.383,-2.922 -10.695,-0.98 -16.531,-3.894 -7.778,1.457 -16.047,3.894 -23.336,0.488 -6.813,-0.973 -12.16,2.426 -17.996,-0.973 1.457,-12.648 -2.918,-24.801 1.941,-36.476 1.949,-1.457 6.324,0.496 9.242,-0.969 v 0 l 20.91,-0.488 v 0 c 4.375,7.304 13.606,0.488 20.422,3.41 4.375,-1.457 12.157,4.859 14.586,-2.43 0,-2.437 -1.941,-3.406 -3.894,-3.895 -24.317,-6.32 -49.59,-0.972 -72.446,-2.429 -7.297,1.457 -15.078,1.457 -21.398,4.375 v 0 l -1.938,2.922 v 0 c 6.801,9.722 12.629,-2.922 20.899,-0.496 v 0 l 5.351,-0.477 v 0 c -0.488,11.184 0.969,25.762 0.969,37.438 -6.801,1.945 -14.094,-3.887 -20.902,0.488 -2.926,6.808 5.351,2.426 7.297,5.34 3.89,-3.399 7.777,1.953 12.148,-0.477 3.41,2.43 0,7.781 2.914,10.695 -7.777,8.266 -2.914,17.993 -4.371,28.2 -5.836,1.457 -11.18,-0.485 -17.504,0 -2.429,-1.457 -7.293,0 -10.207,0.98 0,6.316 7.778,2.914 11.18,5.344 29.172,1.457 58.355,5.351 87.527,1.457 z m 144.428,6.324 c -3.9,-23.344 -7.3,-46.684 -5.85,-71.961 v 0 l 1.46,-0.98 v 0 c -2.91,-11.18 2.43,-22.371 1.94,-33.551 0.97,-4.371 8.77,-5.344 5.84,-11.668 -1.93,-1.457 -4.87,-5.836 -7.29,-1.457 -6.33,11.183 -3.9,25.285 -7.78,35.98 -4.37,-9.238 -8.28,-21.398 -20.44,-24.312 -10.19,0 -13.59,11.668 -17,19.941 -1.45,14.098 -3.4,28.684 -3.4,42.789 -1.46,1.946 -4.38,0.973 -3.89,4.371 0.48,12.637 0.48,25.774 6.31,37.934 3.41,0 6.81,0.484 8.76,-2.43 2.91,-2.437 -0.48,-6.816 -1.95,-9.246 -2.92,-27.23 -8.26,-58.351 7.29,-81.691 1.46,-0.965 3.88,-0.488 5.84,-0.488 15.57,12.648 13.13,34.531 18.48,51.054 0,16.543 0.97,31.61 4.86,47.172 1.95,5.836 5.84,0 6.82,-1.457 z m 191.57,8.266 c -6.8,-14.106 -8.28,-30.153 -13.12,-44.742 -3.41,-20.903 -6.82,-39.864 -8.75,-59.805 -1.95,-9.723 -2.43,-21.391 -3.91,-29.66 1.48,-4.856 -0.97,-9.723 2.44,-13.618 0,-3.398 -1.94,-6.808 -4.86,-8.265 -6.8,3.894 -0.98,12.648 -2.92,18 0.98,21.875 2.44,41.324 6.82,61.262 v 0 l -1.48,1.945 v 0 c -3.4,-11.668 -9.22,-22.848 -17.49,-32.094 -1.95,-0.973 -4.37,-0.484 -6.32,-0.484 -8.75,8.75 -2.44,20.91 -4.38,30.633 2.92,19.449 8.75,41.82 10.7,59.324 -0.5,1.945 0.97,6.808 -1.95,9.238 -9.72,-2.43 -13.63,-17.504 -24.31,-13.617 -0.98,1.457 -0.5,4.379 -2.91,4.863 v 0 l -43.77,0.485 v 0 c -6.32,-3.399 -2.92,-13.618 -4.87,-19.446 -1.45,-8.265 1.47,-16.531 -2.42,-24.312 2.42,-16.047 -1.96,-35.02 3.89,-48.629 0.48,-2.922 -1.94,-4.379 -3.89,-6.32 -2.44,-0.973 -4.86,1.457 -4.86,3.398 5.34,14.113 -5.85,28.207 0.47,41.828 0.5,16.035 1.46,33.055 0.5,47.16 -5.35,7.297 -15.56,2.43 -24.31,3.895 -9.24,-8.266 -21.89,-2.43 -34.06,-5.84 -1.93,-0.484 -2.9,1.461 -4.35,2.43 -1.95,3.41 0.47,6.812 2.9,9.238 30.64,1.953 55.93,0.98 86.08,1.457 11.18,0.496 21.38,0.98 32.08,-0.973 10.71,1.469 16.53,16.543 28.2,14.106 9.24,-8.266 1.96,-21.883 1.47,-32.086 -2.92,-8.266 -3.89,-18.485 -5.84,-27.723 -2.42,-10.695 -2.42,-23.34 -2.42,-35.976 1.45,-0.489 2.91,-3.895 4.37,-0.985 15.07,21.403 17.49,48.153 26.26,72.457 2.42,9.723 6.8,18.477 9.72,27.711 3.9,4.383 8.74,-0.484 7.29,-4.855 v 0"
       style="fill:#ffffff;fill-opacity:1;fill-rule:evenodd;stroke:none"
       transform="matrix(0.13333333,0,0,-0.13333333,0,116)" />
  </g>
</svg>
